<?xml version="1.0" standalone="no"?>
<!DOCTYPE svg PUBLIC "-//W3C//DTD SVG 20010904//EN"
 "http://www.w3.org/TR/2001/REC-SVG-20010904/DTD/svg10.dtd">
<svg version="1.0" xmlns="http://www.w3.org/2000/svg"
 width="700.000000pt" height="700.000000pt" viewBox="0 0 700.000000 700.000000"
 preserveAspectRatio="xMidYMid meet">
<metadata>
Created by potrace 1.14, written by Peter Selinger 2001-2017
</metadata>
<g transform="translate(0.000000,700.000000) scale(0.100000,-0.100000)"
fill="#000000" stroke="none">
<path d="M3044 6030 c-310 -35 -561 -146 -763 -336 -141 -133 -235 -285 -283
-459 -19 -69 -22 -105 -22 -260 1 -207 15 -278 84 -421 111 -230 350 -418 700
-550 36 -14 68 -28 73 -33 4 -4 2 -32 -3 -62 -14 -72 -14 -277 0 -364 56 -349
298 -600 757 -785 45 -19 80 -37 77 -42 -11 -17 -128 -91 -197 -124 -253 -119
-669 -122 -949 -4 -238 99 -391 327 -439 651 -7 46 -14 86 -15 87 -1 2 -55 -8
-119 -23 -116 -27 -117 -28 -111 -54 48 -218 76 -472 76 -703 l0 -167 108 -35
c213 -69 432 -109 689 -127 512 -35 973 91 1248 343 l55 50 78 -27 c276 -98
500 -256 584 -411 105 -195 61 -469 -104 -649 -228 -249 -656 -340 -1077 -229
-214 56 -373 181 -464 364 -48 99 -92 242 -103 340 -3 32 -9 63 -13 69 -5 7
-40 3 -116 -15 -61 -15 -112 -28 -114 -30 -2 -1 6 -52 18 -111 39 -205 54
-351 55 -571 l1 -213 90 -29 c519 -166 1087 -183 1502 -45 195 65 356 160 491
289 237 228 343 493 329 829 -6 147 -23 226 -73 335 -109 238 -355 433 -704
556 -42 15 -80 30 -87 34 -8 5 -7 27 4 82 10 54 13 120 10 235 -4 141 -7 170
-32 245 -47 146 -104 238 -211 344 -117 115 -302 225 -504 301 -41 16 -79 32
-84 36 -12 10 166 95 239 113 250 63 566 39 760 -58 189 -94 302 -246 349
-471 8 -37 16 -68 18 -70 6 -6 181 26 190 34 5 4 -3 61 -17 126 -31 150 -52
320 -61 497 l-7 137 -146 35 c-325 77 -488 99 -736 99 -362 0 -627 -83 -874
-276 l-63 -49 -72 28 c-39 16 -118 53 -175 82 -340 171 -501 359 -501 582 0
143 50 260 160 370 91 91 195 149 338 187 88 24 114 26 287 27 203 0 267 -10
398 -57 196 -71 335 -223 395 -432 11 -39 23 -87 27 -107 3 -21 7 -38 9 -38 2
0 48 9 101 20 53 11 98 20 100 20 1 0 -8 44 -21 98 -32 139 -54 298 -60 437
-3 66 -7 143 -10 172 l-5 51 -77 20 c-137 37 -313 73 -447 93 -146 22 -433 32
-541 19z m420 -2293 c183 -93 308 -206 370 -333 25 -51 51 -143 42 -151 -8 -8
-274 134 -343 183 -91 65 -176 146 -219 211 -32 49 -74 149 -74 179 0 16 87
-18 224 -89z"/>
</g>
</svg>
